<svg width="267" height="61" viewBox="0 0 267 61" fill="none" xmlns="http://www.w3.org/2000/svg">
<rect width="267" height="61" rx="14" fill="white"/>
<rect x="0.5" y="0.5" width="266" height="60" rx="13.5" stroke="#455A64" stroke-opacity="0.15"/>
<path d="M50.5253 27.3991H49.25V27.3334H35V33.6667H43.9482C42.6427 37.3535 39.1348 40.0001 35 40.0001C29.7536 40.0001 25.5 35.7465 25.5 30.5001C25.5 25.2537 29.7536 21.0001 35 21.0001C37.4217 21.0001 39.6249 21.9137 41.3024 23.406L45.7809 18.9275C42.953 16.292 39.1705 14.6667 35 14.6667C26.256 14.6667 19.1666 21.7561 19.1666 30.5001C19.1666 39.244 26.256 46.3334 35 46.3334C43.7439 46.3334 50.8333 39.244 50.8333 30.5001C50.8333 29.4385 50.724 28.4022 50.5253 27.3991Z" fill="#FFC107"/>
<path d="M20.9923 23.1305L26.1944 26.9455C27.6019 23.4606 31.0109 21.0001 35.0001 21.0001C37.4218 21.0001 39.625 21.9137 41.3025 23.406L45.781 18.9275C42.9531 16.292 39.1706 14.6667 35.0001 14.6667C28.9185 14.6667 23.6444 18.1002 20.9923 23.1305Z" fill="#FF3D00"/>
<path d="M35 46.3334C39.0898 46.3334 42.8059 44.7683 45.6155 42.2231L40.7151 38.0763C39.072 39.3259 37.0643 40.0017 35 40.0001C30.8818 40.0001 27.385 37.3741 26.0677 33.7095L20.9044 37.6876C23.5248 42.8152 28.8464 46.3334 35 46.3334Z" fill="#4CAF50"/>
<path d="M50.5254 27.399H49.25V27.3333H35V33.6666H43.9482C43.3237 35.4212 42.1989 36.9545 40.7127 38.077L40.715 38.0754L45.6155 42.2221C45.2687 42.5372 50.8333 38.4166 50.8333 30.4999C50.8333 29.4383 50.7241 28.402 50.5254 27.399Z" fill="#1976D2"/>
<path d="M71.25 21.168C70.3353 21.168 69.5327 20.958 68.842 20.538C68.1513 20.1087 67.6147 19.516 67.232 18.76C66.8493 17.9947 66.658 17.1127 66.658 16.114C66.658 15.1153 66.8493 14.2333 67.232 13.468C67.624 12.7027 68.1747 12.1053 68.884 11.676C69.6027 11.2467 70.4473 11.032 71.418 11.032C72.5193 11.032 73.434 11.298 74.162 11.83C74.8993 12.362 75.3753 13.0947 75.59 14.028H74.232C74.1013 13.44 73.7887 12.9733 73.294 12.628C72.8087 12.2827 72.1833 12.11 71.418 12.11C70.6993 12.11 70.074 12.2733 69.542 12.6C69.01 12.9173 68.5947 13.3747 68.296 13.972C68.0067 14.5693 67.862 15.2833 67.862 16.114C67.862 16.9447 68.0067 17.6587 68.296 18.256C68.5853 18.8533 68.9867 19.3153 69.5 19.642C70.0133 19.9593 70.6107 20.118 71.292 20.118C72.3373 20.118 73.126 19.8147 73.658 19.208C74.19 18.592 74.4933 17.752 74.568 16.688H71.74V15.764H75.772V21H74.694L74.596 19.39C74.2413 19.9593 73.8073 20.398 73.294 20.706C72.7807 21.014 72.0993 21.168 71.25 21.168ZM80.7257 21.168C80.0724 21.168 79.4844 21.0187 78.9617 20.72C78.439 20.4213 78.0237 20.0013 77.7157 19.46C77.417 18.9093 77.2677 18.2653 77.2677 17.528C77.2677 16.7907 77.4217 16.1513 77.7297 15.61C78.0377 15.0593 78.453 14.6347 78.9757 14.336C79.5077 14.0373 80.1004 13.888 80.7537 13.888C81.407 13.888 81.995 14.0373 82.5177 14.336C83.0404 14.6347 83.451 15.0593 83.7497 15.61C84.0577 16.1513 84.2117 16.7907 84.2117 17.528C84.2117 18.2653 84.0577 18.9093 83.7497 19.46C83.4417 20.0013 83.0217 20.4213 82.4897 20.72C81.967 21.0187 81.379 21.168 80.7257 21.168ZM80.7257 20.16C81.127 20.16 81.5004 20.062 81.8457 19.866C82.191 19.67 82.471 19.376 82.6857 18.984C82.9004 18.592 83.0077 18.1067 83.0077 17.528C83.0077 16.9493 82.9004 16.464 82.6857 16.072C82.4804 15.68 82.205 15.386 81.8597 15.19C81.5144 14.994 81.1457 14.896 80.7537 14.896C80.3524 14.896 79.979 14.994 79.6337 15.19C79.2884 15.386 79.0084 15.68 78.7937 16.072C78.579 16.464 78.4717 16.9493 78.4717 17.528C78.4717 18.1067 78.579 18.592 78.7937 18.984C79.0084 19.376 79.2837 19.67 79.6197 19.866C79.965 20.062 80.3337 20.16 80.7257 20.16ZM89.0109 21.168C88.3575 21.168 87.7695 21.0187 87.2469 20.72C86.7242 20.4213 86.3089 20.0013 86.0009 19.46C85.7022 18.9093 85.5529 18.2653 85.5529 17.528C85.5529 16.7907 85.7069 16.1513 86.0149 15.61C86.3229 15.0593 86.7382 14.6347 87.2609 14.336C87.7929 14.0373 88.3855 13.888 89.0389 13.888C89.6922 13.888 90.2802 14.0373 90.8029 14.336C91.3255 14.6347 91.7362 15.0593 92.0349 15.61C92.3429 16.1513 92.4969 16.7907 92.4969 17.528C92.4969 18.2653 92.3429 18.9093 92.0349 19.46C91.7269 20.0013 91.3069 20.4213 90.7749 20.72C90.2522 21.0187 89.6642 21.168 89.0109 21.168ZM89.0109 20.16C89.4122 20.16 89.7855 20.062 90.1309 19.866C90.4762 19.67 90.7562 19.376 90.9709 18.984C91.1855 18.592 91.2929 18.1067 91.2929 17.528C91.2929 16.9493 91.1855 16.464 90.9709 16.072C90.7655 15.68 90.4902 15.386 90.1449 15.19C89.7995 14.994 89.4309 14.896 89.0389 14.896C88.6375 14.896 88.2642 14.994 87.9189 15.19C87.5735 15.386 87.2935 15.68 87.0789 16.072C86.8642 16.464 86.7569 16.9493 86.7569 17.528C86.7569 18.1067 86.8642 18.592 87.0789 18.984C87.2935 19.376 87.5689 19.67 87.9049 19.866C88.2502 20.062 88.6189 20.16 89.0109 20.16ZM96.5752 18.816C96.1832 18.816 95.8239 18.7647 95.4972 18.662L94.7972 19.32C94.8999 19.3947 95.0259 19.46 95.1752 19.516C95.3339 19.5627 95.5579 19.6093 95.8472 19.656C96.1366 19.6933 96.5426 19.7353 97.0652 19.782C97.9986 19.8473 98.6659 20.062 99.0672 20.426C99.4686 20.79 99.6692 21.266 99.6692 21.854C99.6692 22.2553 99.5572 22.638 99.3332 23.002C99.1186 23.366 98.7826 23.6647 98.3252 23.898C97.8772 24.1313 97.2986 24.248 96.5892 24.248C95.9639 24.248 95.4086 24.164 94.9232 23.996C94.4379 23.8373 94.0599 23.59 93.7892 23.254C93.5186 22.9273 93.3832 22.512 93.3832 22.008C93.3832 21.7467 93.4532 21.462 93.5932 21.154C93.7332 20.8553 93.9946 20.5707 94.3772 20.3C94.1719 20.216 93.9946 20.1273 93.8452 20.034C93.7052 19.9313 93.5746 19.8193 93.4532 19.698V19.376L94.6432 18.2C94.0926 17.7333 93.8172 17.1173 93.8172 16.352C93.8172 15.8947 93.9246 15.4793 94.1392 15.106C94.3539 14.7327 94.6666 14.4387 95.0772 14.224C95.4879 14 95.9872 13.888 96.5752 13.888C96.9766 13.888 97.3406 13.944 97.6672 14.056H100.229V14.938L98.9272 14.994C99.1979 15.386 99.3332 15.8387 99.3332 16.352C99.3332 16.8093 99.2212 17.2247 98.9972 17.598C98.7826 17.9713 98.4699 18.27 98.0592 18.494C97.6579 18.7087 97.1632 18.816 96.5752 18.816ZM96.5752 17.85C97.0699 17.85 97.4619 17.724 97.7512 17.472C98.0499 17.2107 98.1992 16.8373 98.1992 16.352C98.1992 15.876 98.0499 15.512 97.7512 15.26C97.4619 14.9987 97.0699 14.868 96.5752 14.868C96.0712 14.868 95.6699 14.9987 95.3712 15.26C95.0819 15.512 94.9372 15.876 94.9372 16.352C94.9372 16.8373 95.0819 17.2107 95.3712 17.472C95.6699 17.724 96.0712 17.85 96.5752 17.85ZM94.5312 21.896C94.5312 22.3627 94.7272 22.708 95.1192 22.932C95.5112 23.1653 96.0012 23.282 96.5892 23.282C97.1679 23.282 97.6299 23.156 97.9752 22.904C98.3299 22.652 98.5072 22.316 98.5072 21.896C98.5072 21.5973 98.3859 21.336 98.1432 21.112C97.9006 20.8973 97.4526 20.7713 96.7992 20.734C96.2859 20.6967 95.8426 20.65 95.4692 20.594C95.0866 20.7993 94.8346 21.0187 94.7132 21.252C94.5919 21.4947 94.5312 21.7093 94.5312 21.896ZM101.556 21V10.92H102.732V21H101.556ZM107.781 21.168C107.119 21.168 106.531 21.0187 106.017 20.72C105.504 20.412 105.098 19.9873 104.799 19.446C104.51 18.9047 104.365 18.2653 104.365 17.528C104.365 16.8 104.51 16.1653 104.799 15.624C105.089 15.0733 105.49 14.6487 106.003 14.35C106.526 14.042 107.128 13.888 107.809 13.888C108.481 13.888 109.06 14.042 109.545 14.35C110.04 14.6487 110.418 15.0453 110.679 15.54C110.941 16.0347 111.071 16.5667 111.071 17.136C111.071 17.2387 111.067 17.3413 111.057 17.444C111.057 17.5467 111.057 17.6633 111.057 17.794H105.527C105.555 18.326 105.677 18.7693 105.891 19.124C106.115 19.4693 106.391 19.7307 106.717 19.908C107.053 20.0853 107.408 20.174 107.781 20.174C108.267 20.174 108.673 20.062 108.999 19.838C109.326 19.614 109.564 19.3107 109.713 18.928H110.875C110.689 19.572 110.329 20.1087 109.797 20.538C109.275 20.958 108.603 21.168 107.781 21.168ZM107.781 14.882C107.221 14.882 106.722 15.0547 106.283 15.4C105.854 15.736 105.607 16.2307 105.541 16.884H109.909C109.881 16.2587 109.667 15.7687 109.265 15.414C108.864 15.0593 108.369 14.882 107.781 14.882ZM116.405 21V11.2H119.569C120.334 11.2 120.96 11.326 121.445 11.578C121.93 11.83 122.29 12.1753 122.523 12.614C122.756 13.0527 122.873 13.538 122.873 14.07C122.873 14.686 122.705 15.2413 122.369 15.736C122.042 16.2307 121.529 16.5807 120.829 16.786L122.971 21H121.585L119.597 16.954H119.513H117.581V21H116.405ZM117.581 16.03H119.485C120.241 16.03 120.792 15.848 121.137 15.484C121.482 15.12 121.655 14.6533 121.655 14.084C121.655 13.5053 121.482 13.048 121.137 12.712C120.801 12.3667 120.246 12.194 119.471 12.194H117.581V16.03ZM127.332 21.168C126.669 21.168 126.081 21.0187 125.568 20.72C125.055 20.412 124.649 19.9873 124.35 19.446C124.061 18.9047 123.916 18.2653 123.916 17.528C123.916 16.8 124.061 16.1653 124.35 15.624C124.639 15.0733 125.041 14.6487 125.554 14.35C126.077 14.042 126.679 13.888 127.36 13.888C128.032 13.888 128.611 14.042 129.096 14.35C129.591 14.6487 129.969 15.0453 130.23 15.54C130.491 16.0347 130.622 16.5667 130.622 17.136C130.622 17.2387 130.617 17.3413 130.608 17.444C130.608 17.5467 130.608 17.6633 130.608 17.794H125.078C125.106 18.326 125.227 18.7693 125.442 19.124C125.666 19.4693 125.941 19.7307 126.268 19.908C126.604 20.0853 126.959 20.174 127.332 20.174C127.817 20.174 128.223 20.062 128.55 19.838C128.877 19.614 129.115 19.3107 129.264 18.928H130.426C130.239 19.572 129.88 20.1087 129.348 20.538C128.825 20.958 128.153 21.168 127.332 21.168ZM127.332 14.882C126.772 14.882 126.273 15.0547 125.834 15.4C125.405 15.736 125.157 16.2307 125.092 16.884H129.46C129.432 16.2587 129.217 15.7687 128.816 15.414C128.415 15.0593 127.92 14.882 127.332 14.882ZM133.909 21L131.277 14.056H132.509L134.595 19.866L136.695 14.056H137.899L135.267 21H133.909ZM139.922 12.516C139.689 12.516 139.493 12.4413 139.334 12.292C139.185 12.1333 139.11 11.9373 139.11 11.704C139.11 11.48 139.185 11.2933 139.334 11.144C139.493 10.9947 139.689 10.92 139.922 10.92C140.146 10.92 140.338 10.9947 140.496 11.144C140.655 11.2933 140.734 11.48 140.734 11.704C140.734 11.9373 140.655 12.1333 140.496 12.292C140.338 12.4413 140.146 12.516 139.922 12.516ZM139.334 21V14.056H140.51V21H139.334ZM145.68 21.168C145.017 21.168 144.429 21.0187 143.916 20.72C143.402 20.412 142.996 19.9873 142.698 19.446C142.408 18.9047 142.264 18.2653 142.264 17.528C142.264 16.8 142.408 16.1653 142.698 15.624C142.987 15.0733 143.388 14.6487 143.902 14.35C144.424 14.042 145.026 13.888 145.708 13.888C146.38 13.888 146.958 14.042 147.444 14.35C147.938 14.6487 148.316 15.0453 148.578 15.54C148.839 16.0347 148.97 16.5667 148.97 17.136C148.97 17.2387 148.965 17.3413 148.956 17.444C148.956 17.5467 148.956 17.6633 148.956 17.794H143.426C143.454 18.326 143.575 18.7693 143.79 19.124C144.014 19.4693 144.289 19.7307 144.616 19.908C144.952 20.0853 145.306 20.174 145.68 20.174C146.165 20.174 146.571 20.062 146.898 19.838C147.224 19.614 147.462 19.3107 147.612 18.928H148.774C148.587 19.572 148.228 20.1087 147.696 20.538C147.173 20.958 146.501 21.168 145.68 21.168ZM145.68 14.882C145.12 14.882 144.62 15.0547 144.182 15.4C143.752 15.736 143.505 16.2307 143.44 16.884H147.808C147.78 16.2587 147.565 15.7687 147.164 15.414C146.762 15.0593 146.268 14.882 145.68 14.882ZM151.655 21L149.625 14.056H150.801L152.271 19.502L153.895 14.056H155.225L156.863 19.502L158.319 14.056H159.509L157.479 21H156.275L154.567 15.274L152.859 21H151.655ZM163.47 21.168C162.639 21.168 161.948 20.958 161.398 20.538C160.847 20.118 160.525 19.5487 160.432 18.83H161.636C161.71 19.194 161.902 19.5113 162.21 19.782C162.527 20.0433 162.952 20.174 163.484 20.174C163.978 20.174 164.342 20.0713 164.576 19.866C164.809 19.6513 164.926 19.3993 164.926 19.11C164.926 18.69 164.772 18.41 164.464 18.27C164.165 18.13 163.74 18.004 163.19 17.892C162.816 17.8173 162.443 17.71 162.07 17.57C161.696 17.43 161.384 17.234 161.132 16.982C160.88 16.7207 160.754 16.38 160.754 15.96C160.754 15.3533 160.978 14.8587 161.426 14.476C161.883 14.084 162.499 13.888 163.274 13.888C164.011 13.888 164.613 14.0747 165.08 14.448C165.556 14.812 165.831 15.3347 165.906 16.016H164.744C164.697 15.6613 164.543 15.386 164.282 15.19C164.03 14.9847 163.689 14.882 163.26 14.882C162.84 14.882 162.513 14.9707 162.28 15.148C162.056 15.3253 161.944 15.5587 161.944 15.848C161.944 16.128 162.088 16.3473 162.378 16.506C162.676 16.6647 163.078 16.8 163.582 16.912C164.011 17.0053 164.417 17.122 164.8 17.262C165.192 17.3927 165.509 17.5933 165.752 17.864C166.004 18.1253 166.13 18.508 166.13 19.012C166.139 19.6373 165.901 20.1553 165.416 20.566C164.94 20.9673 164.291 21.168 163.47 21.168Z" fill="#263238" fill-opacity="0.7"/>
<path d="M78.9297 46.8883L83.8516 49.6383C84.4864 49.9906 85.2676 49.4664 85.0821 48.8219L83.6563 43.8891C83.6177 43.7524 83.6239 43.6088 83.674 43.475C83.7241 43.3412 83.8161 43.2226 83.9395 43.1328L88.3535 39.893C88.9297 39.4719 88.6367 38.6211 87.8848 38.5781L82.1231 38.2516C81.9659 38.2435 81.8147 38.1954 81.6881 38.1129C81.5615 38.0305 81.4649 37.9175 81.4102 37.7875L79.2617 33.0266C79.2049 32.889 79.1013 32.7701 78.965 32.6862C78.8287 32.6022 78.6664 32.5571 78.5 32.5571C78.3337 32.5571 78.1713 32.6022 78.0351 32.6862C77.8988 32.7701 77.7952 32.889 77.7383 33.0266L75.5899 37.7875C75.5351 37.9175 75.4385 38.0305 75.3119 38.1129C75.1853 38.1954 75.0342 38.2435 74.877 38.2516L69.1153 38.5781C68.3633 38.6211 68.0703 39.4719 68.6465 39.893L73.0606 43.1328C73.1839 43.2226 73.276 43.3412 73.3261 43.475C73.3762 43.6088 73.3823 43.7524 73.3438 43.8891L72.0254 48.461C71.8008 49.2344 72.7383 49.8617 73.4903 49.4406L78.0703 46.8883C78.1988 46.8164 78.3478 46.7783 78.5 46.7783C78.6522 46.7783 78.8013 46.8164 78.9297 46.8883Z" fill="#FFC107"/>
<path d="M100.412 46.8883L105.137 49.6383C105.747 49.9906 106.497 49.4664 106.319 48.8219L104.95 43.8891C104.913 43.7524 104.919 43.6088 104.967 43.475C105.015 43.3412 105.103 43.2226 105.222 43.1328L109.459 39.893C110.012 39.4719 109.731 38.6211 109.009 38.5781L103.478 38.2516C103.327 38.2435 103.182 38.1954 103.061 38.1129C102.939 38.0305 102.846 37.9175 102.794 37.7875L100.731 33.0266C100.677 32.889 100.577 32.7701 100.446 32.6862C100.316 32.6022 100.16 32.5571 100 32.5571C99.8403 32.5571 99.6844 32.6022 99.5536 32.6862C99.4228 32.7701 99.3233 32.889 99.2687 33.0266L97.2062 37.7875C97.1537 37.9175 97.061 38.0305 96.9394 38.1129C96.8179 38.1954 96.6728 38.2435 96.5219 38.2516L90.9906 38.5781C90.2687 38.6211 89.9875 39.4719 90.5406 39.893L94.7781 43.1328C94.8966 43.2226 94.9849 43.3412 95.033 43.475C95.0811 43.6088 95.087 43.7524 95.05 43.8891L93.7844 48.461C93.5687 49.2344 94.4687 49.8617 95.1906 49.4406L99.5875 46.8883C99.7108 46.8164 99.8539 46.7783 100 46.7783C100.146 46.7783 100.289 46.8164 100.412 46.8883Z" fill="#FFC107"/>
<path d="M121.412 46.8883L126.137 49.6383C126.747 49.9906 127.497 49.4664 127.319 48.8219L125.95 43.8891C125.913 43.7524 125.919 43.6088 125.967 43.475C126.015 43.3412 126.103 43.2226 126.222 43.1328L130.459 39.893C131.012 39.4719 130.731 38.6211 130.009 38.5781L124.478 38.2516C124.327 38.2435 124.182 38.1954 124.061 38.1129C123.939 38.0305 123.846 37.9175 123.794 37.7875L121.731 33.0266C121.677 32.889 121.577 32.7701 121.446 32.6862C121.316 32.6022 121.16 32.5571 121 32.5571C120.84 32.5571 120.684 32.6022 120.554 32.6862C120.423 32.7701 120.323 32.889 120.269 33.0266L118.206 37.7875C118.154 37.9175 118.061 38.0305 117.939 38.1129C117.818 38.1954 117.673 38.2435 117.522 38.2516L111.991 38.5781C111.269 38.6211 110.987 39.4719 111.541 39.893L115.778 43.1328C115.897 43.2226 115.985 43.3412 116.033 43.475C116.081 43.6088 116.087 43.7524 116.05 43.8891L114.784 48.461C114.569 49.2344 115.469 49.8617 116.191 49.4406L120.587 46.8883C120.711 46.8164 120.854 46.7783 121 46.7783C121.146 46.7783 121.289 46.8164 121.412 46.8883Z" fill="#FFC107"/>
<path d="M142.412 47.6231L147.137 50.7481C147.747 51.1485 148.497 50.5528 148.319 49.8203L146.95 44.2149C146.913 44.0595 146.919 43.8964 146.967 43.7443C147.015 43.5923 147.103 43.4575 147.222 43.3555L151.459 39.6739C152.012 39.1953 151.731 38.2285 151.009 38.1797L145.478 37.8086C145.327 37.7995 145.182 37.7447 145.061 37.6511C144.939 37.5574 144.846 37.4289 144.794 37.2813L142.731 31.8711C142.677 31.7148 142.577 31.5797 142.446 31.4843C142.316 31.3888 142.16 31.3376 142 31.3376C141.84 31.3376 141.684 31.3888 141.554 31.4843C141.423 31.5797 141.323 31.7148 141.269 31.8711L139.206 37.2813C139.154 37.4289 139.061 37.5574 138.939 37.6511C138.818 37.7447 138.673 37.7995 138.522 37.8086L132.991 38.1797C132.269 38.2285 131.987 39.1953 132.541 39.6739L136.778 43.3555C136.897 43.4575 136.985 43.5923 137.033 43.7443C137.081 43.8964 137.087 44.0595 137.05 44.2149L135.784 49.4102C135.569 50.2891 136.469 51.002 137.191 50.5235L141.587 47.6231C141.711 47.5414 141.854 47.498 142 47.498C142.146 47.498 142.289 47.5414 142.412 47.6231Z" fill="#FFC107"/>
<path d="M163.412 46.8883L168.137 49.6383C168.747 49.9906 169.497 49.4664 169.319 48.8219L167.95 43.8891C167.913 43.7524 167.919 43.6088 167.967 43.475C168.015 43.3412 168.103 43.2226 168.222 43.1328L172.459 39.893C173.012 39.4719 172.731 38.6211 172.009 38.5781L166.478 38.2516C166.327 38.2435 166.182 38.1954 166.061 38.1129C165.939 38.0305 165.846 37.9175 165.794 37.7875L163.731 33.0266C163.677 32.889 163.577 32.7701 163.446 32.6862C163.316 32.6022 163.16 32.5571 163 32.5571C162.84 32.5571 162.684 32.6022 162.554 32.6862C162.423 32.7701 162.323 32.889 162.269 33.0266L160.206 37.7875C160.154 37.9175 160.061 38.0305 159.939 38.1129C159.818 38.1954 159.673 38.2435 159.522 38.2516L153.991 38.5781C153.269 38.6211 152.987 39.4719 153.541 39.893L157.778 43.1328C157.897 43.2226 157.985 43.3412 158.033 43.475C158.081 43.6088 158.087 43.7524 158.05 43.8891L156.784 48.461C156.569 49.2344 157.469 49.8617 158.191 49.4406L162.587 46.8883C162.711 46.8164 162.854 46.7783 163 46.7783C163.146 46.7783 163.289 46.8164 163.412 46.8883V46.8883Z" stroke="#FFC107" stroke-width="2" stroke-linecap="round" stroke-linejoin="round"/>
<path d="M189.208 47V44.92H183.688V43.288L188.936 35.8H191.256V43.144H192.728V44.92H191.256V47H189.208ZM185.88 43.144H189.336V38.056L185.88 43.144ZM195.17 47.112C194.797 47.112 194.487 46.9947 194.242 46.76C194.007 46.5253 193.89 46.2427 193.89 45.912C193.89 45.5707 194.007 45.2827 194.242 45.048C194.487 44.8133 194.797 44.696 195.17 44.696C195.543 44.696 195.847 44.8133 196.082 45.048C196.327 45.2827 196.45 45.5707 196.45 45.912C196.45 46.2427 196.327 46.5253 196.082 46.76C195.847 46.9947 195.543 47.112 195.17 47.112ZM202.198 47.192C201.376 47.192 200.667 47.048 200.07 46.76C199.483 46.472 199.019 46.0773 198.678 45.576C198.347 45.064 198.155 44.488 198.102 43.848H200.102C200.198 44.3067 200.432 44.6907 200.806 45C201.179 45.2987 201.643 45.448 202.198 45.448C202.795 45.448 203.28 45.2293 203.654 44.792C204.038 44.3547 204.23 43.8107 204.23 43.16C204.23 42.488 204.038 41.9547 203.654 41.56C203.28 41.1653 202.806 40.968 202.23 40.968C201.75 40.968 201.334 41.0853 200.982 41.32C200.63 41.5547 200.379 41.848 200.23 42.2H198.262L199.222 35.8H205.43V37.592H200.758L200.246 40.184C200.48 39.928 200.8 39.72 201.206 39.56C201.611 39.3893 202.064 39.304 202.566 39.304C203.366 39.304 204.032 39.4853 204.566 39.848C205.099 40.2 205.504 40.6693 205.782 41.256C206.059 41.832 206.198 42.4613 206.198 43.144C206.198 43.9227 206.027 44.616 205.686 45.224C205.355 45.832 204.886 46.312 204.278 46.664C203.68 47.016 202.987 47.192 202.198 47.192ZM211.196 48.776L215.196 34.568H217.196L213.18 48.776H211.196ZM226.479 47.192C225.658 47.192 224.948 47.048 224.351 46.76C223.764 46.472 223.3 46.0773 222.959 45.576C222.628 45.064 222.436 44.488 222.383 43.848H224.383C224.479 44.3067 224.714 44.6907 225.087 45C225.46 45.2987 225.924 45.448 226.479 45.448C227.076 45.448 227.562 45.2293 227.935 44.792C228.319 44.3547 228.511 43.8107 228.511 43.16C228.511 42.488 228.319 41.9547 227.935 41.56C227.562 41.1653 227.087 40.968 226.511 40.968C226.031 40.968 225.615 41.0853 225.263 41.32C224.911 41.5547 224.66 41.848 224.511 42.2H222.543L223.503 35.8H229.711V37.592H225.039L224.527 40.184C224.762 39.928 225.082 39.72 225.487 39.56C225.892 39.3893 226.346 39.304 226.847 39.304C227.647 39.304 228.314 39.4853 228.847 39.848C229.38 40.2 229.786 40.6693 230.063 41.256C230.34 41.832 230.479 42.4613 230.479 43.144C230.479 43.9227 230.308 44.616 229.967 45.224C229.636 45.832 229.167 46.312 228.559 46.664C227.962 47.016 227.268 47.192 226.479 47.192Z" fill="#263238"/>
</svg>
