<svg width="56" height="56" viewBox="0 0 56 56" fill="none" xmlns="http://www.w3.org/2000/svg">
<rect width="56" height="56" rx="28" fill="#FF4747" fill-opacity="0.8"/>
<rect x="0.5" y="0.5" width="55" height="55" rx="27.5" stroke="white" stroke-opacity="0.05"/>
<g clip-path="url(#clip0_2_1816)">
<path d="M30.1211 28.0002L39.5608 18.5616C40.1467 17.9757 40.1467 17.0256 39.5608 16.4397C38.9748 15.8538 38.0248 15.8538 37.4389 16.4397L28.0002 25.8793L18.5616 16.4397C17.9757 15.8538 17.0256 15.8538 16.4397 16.4397C15.8538 17.0257 15.8538 17.9757 16.4397 18.5616L25.8793 28.0002L16.4397 37.4389C15.8538 38.0248 15.8538 38.9748 16.4397 39.5608C17.0257 40.1467 17.9757 40.1467 18.5616 39.5608L28.0002 30.1211L37.4388 39.5608C38.0248 40.1467 38.9748 40.1467 39.5607 39.5608C40.1467 38.9748 40.1467 38.0248 39.5607 37.4389L30.1211 28.0002Z" fill="white"/>
</g>
<defs>
<clipPath id="clip0_2_1816">
<rect width="24" height="24" fill="white" transform="translate(16 16)"/>
</clipPath>
</defs>
</svg>
