<svg width="34" height="33" viewBox="0 0 34 33" fill="none" xmlns="http://www.w3.org/2000/svg">
<path d="M33.5 16.5C33.5 25.3226 26.1269 32.5 17 32.5C7.87313 32.5 0.5 25.3226 0.5 16.5C0.5 7.67741 7.87313 0.5 17 0.5C26.1269 0.5 33.5 7.67741 33.5 16.5Z" fill="white" stroke="black"/>
<path fill-rule="evenodd" clip-rule="evenodd" d="M20.384 9.55923C20.9704 10.1638 20.9404 11.1132 20.3168 11.6795L15.0591 16.4548L20.0042 21.5532C20.5907 22.1579 20.5606 23.1071 19.9371 23.6735C19.3135 24.2398 18.3326 24.2087 17.7462 23.6041L11.7392 17.4109C11.1527 16.8063 11.1828 15.857 11.8063 15.2907L18.193 9.48986C18.8166 8.92356 19.7975 8.95462 20.384 9.55923Z" fill="#4A5568"/>
</svg>
