<svg width="34" height="33" viewBox="0 0 34 33" fill="none" xmlns="http://www.w3.org/2000/svg">
<path d="M33.5 16.5C33.5 25.3226 26.1269 32.5 17 32.5C7.87313 32.5 0.5 25.3226 0.5 16.5C0.5 7.67741 7.87313 0.5 17 0.5C26.1269 0.5 33.5 7.67741 33.5 16.5Z" fill="white" stroke="#5B00D1"/>
<path fill-rule="evenodd" clip-rule="evenodd" d="M13.3036 24.0606C12.6983 23.4749 12.6983 22.5251 13.3036 21.9394L18.4076 17L13.3036 12.0607C12.6983 11.4749 12.6983 10.5251 13.3036 9.93934C13.9089 9.35356 14.8903 9.35356 15.4956 9.93934L21.6956 15.9393C22.3009 16.5251 22.3009 17.4749 21.6956 18.0606L15.4956 24.0606C14.8903 24.6464 13.9089 24.6464 13.3036 24.0606Z" fill="#4A5568"/>
</svg>
