<svg width="212" height="55" viewBox="0 0 212 55" fill="none" xmlns="http://www.w3.org/2000/svg">
<path d="M211.344 0.0429688L0.488754 0.0637596L20.3599 27.4365L0.488754 54.8092H211.344V0.0429688Z" fill="#374957"/>
<path d="M33.9177 23.9765V21.64H38.2827V34.8438H35.6745V23.9765H33.9177ZM40.7877 28.0698C40.7877 25.9809 41.162 24.3448 41.9106 23.1615C42.6713 21.9781 43.9271 21.3865 45.6779 21.3865C47.4288 21.3865 48.6785 21.9781 49.4271 23.1615C50.1878 24.3448 50.5682 25.9809 50.5682 28.0698C50.5682 30.1708 50.1878 31.819 49.4271 33.0144C48.6785 34.2098 47.4288 34.8075 45.6779 34.8075C43.9271 34.8075 42.6713 34.2098 41.9106 33.0144C41.162 31.819 40.7877 30.1708 40.7877 28.0698ZM48.0687 28.0698C48.0687 27.1763 48.0083 26.4277 47.8876 25.8239C47.7789 25.2081 47.5495 24.707 47.1993 24.3206C46.8612 23.9342 46.3541 23.741 45.6779 23.741C45.0017 23.741 44.4886 23.9342 44.1384 24.3206C43.8003 24.707 43.5709 25.2081 43.4501 25.8239C43.3415 26.4277 43.2871 27.1763 43.2871 28.0698C43.2871 28.9875 43.3415 29.7603 43.4501 30.3882C43.5588 31.004 43.7882 31.5051 44.1384 31.8915C44.4886 32.2658 45.0017 32.453 45.6779 32.453C46.3541 32.453 46.8673 32.2658 47.2174 31.8915C47.5676 31.5051 47.797 31.004 47.9057 30.3882C48.0144 29.7603 48.0687 28.9875 48.0687 28.0698ZM52.4968 28.0698C52.4968 25.9809 52.8711 24.3448 53.6198 23.1615C54.3805 21.9781 55.6363 21.3865 57.3871 21.3865C59.1379 21.3865 60.3877 21.9781 61.1363 23.1615C61.897 24.3448 62.2774 25.9809 62.2774 28.0698C62.2774 30.1708 61.897 31.819 61.1363 33.0144C60.3877 34.2098 59.1379 34.8075 57.3871 34.8075C55.6363 34.8075 54.3805 34.2098 53.6198 33.0144C52.8711 31.819 52.4968 30.1708 52.4968 28.0698ZM59.7779 28.0698C59.7779 27.1763 59.7175 26.4277 59.5968 25.8239C59.4881 25.2081 59.2587 24.707 58.9085 24.3206C58.5704 23.9342 58.0633 23.741 57.3871 23.741C56.7109 23.741 56.1977 23.9342 55.8476 24.3206C55.5095 24.707 55.2801 25.2081 55.1593 25.8239C55.0506 26.4277 54.9963 27.1763 54.9963 28.0698C54.9963 28.9875 55.0506 29.7603 55.1593 30.3882C55.268 31.004 55.4974 31.5051 55.8476 31.8915C56.1977 32.2658 56.7109 32.453 57.3871 32.453C58.0633 32.453 58.5765 32.2658 58.9266 31.8915C59.2768 31.5051 59.5062 31.004 59.6149 30.3882C59.7236 29.7603 59.7779 28.9875 59.7779 28.0698ZM63.9162 24.8821C63.9162 23.9644 64.1819 23.246 64.7131 22.7268C65.2565 22.2076 65.9508 21.9479 66.796 21.9479C67.6413 21.9479 68.3295 22.2076 68.8608 22.7268C69.4042 23.246 69.6759 23.9644 69.6759 24.8821C69.6759 25.8119 69.4042 26.5363 68.8608 27.0556C68.3295 27.5748 67.6413 27.8344 66.796 27.8344C65.9508 27.8344 65.2565 27.5748 64.7131 27.0556C64.1819 26.5363 63.9162 25.8119 63.9162 24.8821ZM75.5442 22.1653L68.4261 34.8438H65.9629L73.0628 22.1653H75.5442ZM66.7779 23.4694C66.1138 23.4694 65.7818 23.9403 65.7818 24.8821C65.7818 25.836 66.1138 26.313 66.7779 26.313C67.1039 26.313 67.3575 26.1983 67.5386 25.9688C67.7198 25.7273 67.8103 25.3651 67.8103 24.8821C67.8103 23.9403 67.4662 23.4694 66.7779 23.4694ZM71.8674 32.1088C71.8674 31.1791 72.1331 30.4606 72.6644 29.9535C73.2077 29.4343 73.902 29.1747 74.7472 29.1747C75.5925 29.1747 76.2747 29.4343 76.7939 29.9535C77.3252 30.4606 77.5908 31.1791 77.5908 32.1088C77.5908 33.0386 77.3252 33.7631 76.7939 34.2823C76.2747 34.8015 75.5925 35.0611 74.7472 35.0611C73.8899 35.0611 73.1956 34.8015 72.6644 34.2823C72.1331 33.7631 71.8674 33.0386 71.8674 32.1088ZM74.7291 30.6961C74.0409 30.6961 73.6967 31.167 73.6967 32.1088C73.6967 33.0627 74.0409 33.5397 74.7291 33.5397C75.4053 33.5397 75.7434 33.0627 75.7434 32.1088C75.7434 31.167 75.4053 30.6961 74.7291 30.6961ZM90.3487 34.8438L87.5594 29.9173H86.364V34.8438H83.8283V22.2015H88.5737C89.5517 22.2015 90.3849 22.3766 91.0732 22.7268C91.7614 23.0649 92.2746 23.5297 92.6127 24.1214C92.9628 24.701 93.1379 25.353 93.1379 26.0775C93.1379 26.9107 92.8964 27.6653 92.4135 28.3415C91.9305 29.0056 91.212 29.4645 90.2581 29.718L93.2828 34.8438H90.3487ZM86.364 28.0155H88.4831C89.1714 28.0155 89.6846 27.8525 90.0227 27.5265C90.3607 27.1884 90.5298 26.7235 90.5298 26.1318C90.5298 25.5523 90.3607 25.1055 90.0227 24.7915C89.6846 24.4655 89.1714 24.3025 88.4831 24.3025H86.364V28.0155ZM104.759 29.6094C104.759 29.9716 104.735 30.2976 104.687 30.5874H97.3513C97.4116 31.3119 97.6652 31.8794 98.112 32.2899C98.5587 32.7005 99.1081 32.9058 99.7602 32.9058C100.702 32.9058 101.372 32.5013 101.771 31.6922H104.506C104.216 32.6582 103.66 33.4552 102.839 34.083C102.018 34.6989 101.01 35.0068 99.8145 35.0068C98.8485 35.0068 97.9791 34.7955 97.2064 34.3728C96.4457 33.9381 95.848 33.3284 95.4133 32.5435C94.9906 31.7587 94.7793 30.8531 94.7793 29.8267C94.7793 28.7883 94.9906 27.8766 95.4133 27.0918C95.8359 26.3069 96.4275 25.7032 97.1882 25.2806C97.949 24.858 98.8244 24.6466 99.8145 24.6466C100.768 24.6466 101.62 24.8519 102.368 25.2625C103.129 25.673 103.715 26.2586 104.125 27.0193C104.548 27.768 104.759 28.6313 104.759 29.6094ZM102.133 28.8849C102.121 28.2328 101.885 27.7136 101.426 27.3272C100.968 26.9288 100.406 26.7295 99.742 26.7295C99.1142 26.7295 98.5829 26.9227 98.1482 27.3091C97.7256 27.6834 97.466 28.2087 97.3694 28.8849H102.133ZM111.21 26.8925H109.454V34.8438H106.882V26.8925H105.741V24.8097H106.882V24.3025C106.882 23.0709 107.232 22.1653 107.932 21.5857C108.632 21.0061 109.689 20.7344 111.102 20.7707V22.9079C110.486 22.8958 110.057 22.9984 109.816 23.2158C109.574 23.4331 109.454 23.8256 109.454 24.3931V24.8097H111.21V26.8925ZM122.326 24.8097V34.8438H119.772V33.5759C119.446 34.0106 119.018 34.3547 118.486 34.6083C117.967 34.8498 117.4 34.9705 116.784 34.9705C115.999 34.9705 115.305 34.8075 114.701 34.4815C114.097 34.1434 113.62 33.6544 113.27 33.0144C112.932 32.3624 112.763 31.5896 112.763 30.6961V24.8097H115.299V30.3338C115.299 31.1308 115.498 31.7466 115.896 32.1813C116.295 32.6039 116.838 32.8152 117.527 32.8152C118.227 32.8152 118.776 32.6039 119.175 32.1813C119.573 31.7466 119.772 31.1308 119.772 30.3338V24.8097H122.326ZM130.389 24.6648C131.584 24.6648 132.55 25.0451 133.286 25.8058C134.023 26.5545 134.391 27.605 134.391 28.9573V34.8438H131.856V29.3015C131.856 28.5045 131.656 27.8947 131.258 27.4721C130.859 27.0374 130.316 26.8201 129.628 26.8201C128.928 26.8201 128.372 27.0374 127.962 27.4721C127.563 27.8947 127.364 28.5045 127.364 29.3015V34.8438H124.828V24.8097H127.364V26.0594C127.702 25.6247 128.131 25.2866 128.65 25.0451C129.181 24.7915 129.761 24.6648 130.389 24.6648ZM136.151 29.7905C136.151 28.7762 136.35 27.8766 136.748 27.0918C137.159 26.3069 137.714 25.7032 138.415 25.2806C139.115 24.858 139.894 24.6466 140.751 24.6466C141.403 24.6466 142.025 24.7915 142.617 25.0813C143.208 25.3591 143.679 25.7334 144.029 26.2043V21.4408H146.601V34.8438H144.029V33.3586C143.715 33.8536 143.275 34.2521 142.707 34.554C142.14 34.8558 141.482 35.0068 140.733 35.0068C139.888 35.0068 139.115 34.7894 138.415 34.3547C137.714 33.92 137.159 33.3103 136.748 32.5254C136.35 31.7285 136.151 30.8168 136.151 29.7905ZM144.047 29.8267C144.047 29.2109 143.927 28.6856 143.685 28.251C143.444 27.8042 143.118 27.4661 142.707 27.2367C142.297 26.9952 141.856 26.8744 141.385 26.8744C140.914 26.8744 140.479 26.9891 140.081 27.2186C139.682 27.448 139.356 27.7861 139.103 28.2328C138.861 28.6675 138.741 29.1867 138.741 29.7905C138.741 30.3942 138.861 30.9255 139.103 31.3843C139.356 31.8311 139.682 32.1752 140.081 32.4167C140.491 32.6582 140.926 32.779 141.385 32.779C141.856 32.779 142.297 32.6643 142.707 32.4348C143.118 32.1933 143.444 31.8553 143.685 31.4206C143.927 30.9738 144.047 30.4425 144.047 29.8267ZM159.262 34.9705C158.079 34.9705 156.992 34.6928 156.002 34.1374C155.012 33.5819 154.227 32.8152 153.647 31.8371C153.068 30.847 152.778 29.7301 152.778 28.4864C152.778 27.2548 153.068 26.15 153.647 25.1719C154.227 24.1818 155.012 23.409 156.002 22.8536C156.992 22.2981 158.079 22.0204 159.262 22.0204C160.457 22.0204 161.544 22.2981 162.522 22.8536C163.512 23.409 164.291 24.1818 164.859 25.1719C165.438 26.15 165.728 27.2548 165.728 28.4864C165.728 29.7301 165.438 30.847 164.859 31.8371C164.291 32.8152 163.512 33.5819 162.522 34.1374C161.532 34.6928 160.445 34.9705 159.262 34.9705ZM159.262 32.7065C160.023 32.7065 160.693 32.5375 161.272 32.1994C161.852 31.8492 162.305 31.3542 162.631 30.7142C162.957 30.0742 163.12 29.3316 163.12 28.4864C163.12 27.6412 162.957 26.9046 162.631 26.2767C162.305 25.6368 161.852 25.1477 161.272 24.8097C160.693 24.4716 160.023 24.3025 159.262 24.3025C158.501 24.3025 157.825 24.4716 157.233 24.8097C156.654 25.1477 156.201 25.6368 155.875 26.2767C155.549 26.9046 155.386 27.6412 155.386 28.4864C155.386 29.3316 155.549 30.0742 155.875 30.7142C156.201 31.3542 156.654 31.8492 157.233 32.1994C157.825 32.5375 158.501 32.7065 159.262 32.7065ZM172.215 26.8925H170.458V34.8438H167.886V26.8925H166.745V24.8097H167.886V24.3025C167.886 23.0709 168.236 22.1653 168.937 21.5857C169.637 21.0061 170.693 20.7344 172.106 20.7707V22.9079C171.49 22.8958 171.062 22.9984 170.82 23.2158C170.579 23.4331 170.458 23.8256 170.458 24.3931V24.8097H172.215V26.8925ZM178.459 26.8925H176.702V34.8438H174.13V26.8925H172.989V24.8097H174.13V24.3025C174.13 23.0709 174.48 22.1653 175.18 21.5857C175.881 21.0061 176.937 20.7344 178.35 20.7707V22.9079C177.734 22.8958 177.305 22.9984 177.064 23.2158C176.822 23.4331 176.702 23.8256 176.702 24.3931V24.8097H178.459V26.8925ZM189.43 29.6094C189.43 29.9716 189.405 30.2976 189.357 30.5874H182.022C182.082 31.3119 182.336 31.8794 182.782 32.2899C183.229 32.7005 183.779 32.9058 184.431 32.9058C185.372 32.9058 186.043 32.5013 186.441 31.6922H189.176C188.886 32.6582 188.331 33.4552 187.51 34.083C186.689 34.6989 185.68 35.0068 184.485 35.0068C183.519 35.0068 182.65 34.7955 181.877 34.3728C181.116 33.9381 180.518 33.3284 180.084 32.5435C179.661 31.7587 179.45 30.8531 179.45 29.8267C179.45 28.7883 179.661 27.8766 180.084 27.0918C180.506 26.3069 181.098 25.7032 181.859 25.2806C182.619 24.858 183.495 24.6466 184.485 24.6466C185.439 24.6466 186.29 24.8519 187.039 25.2625C187.799 25.673 188.385 26.2586 188.796 27.0193C189.218 27.768 189.43 28.6313 189.43 29.6094ZM186.803 28.8849C186.791 28.2328 186.556 27.7136 186.097 27.3272C185.638 26.9288 185.077 26.7295 184.412 26.7295C183.785 26.7295 183.253 26.9227 182.819 27.3091C182.396 27.6834 182.136 28.2087 182.04 28.8849H186.803ZM193.816 26.3673C194.142 25.836 194.565 25.4194 195.084 25.1176C195.615 24.8157 196.219 24.6648 196.895 24.6648V27.3272H196.225C195.428 27.3272 194.824 27.5144 194.414 27.8887C194.015 28.263 193.816 28.9151 193.816 29.8448V34.8438H191.28V24.8097H193.816V26.3673Z" fill="white"/>
</svg>
