<svg width="319" height="320" viewBox="0 0 319 320" fill="none" xmlns="http://www.w3.org/2000/svg">
<path d="M142.572 26.2884C151.684 16.3829 167.316 16.3829 176.428 26.2884L183.44 33.9117C191.252 42.4045 202.933 46.1999 214.245 43.9208L224.399 41.8752C237.593 39.2171 250.239 48.4056 251.789 61.7749L252.981 72.064C254.309 83.5267 261.528 93.463 272.019 98.2683L281.436 102.582C293.673 108.186 298.503 123.054 291.898 134.78L286.815 143.805C281.152 153.859 281.152 166.141 286.815 176.195L291.898 185.22C298.503 196.947 293.673 211.814 281.436 217.418L272.019 221.732C261.528 226.537 254.309 236.473 252.981 247.936L251.789 258.225C250.239 271.594 237.593 280.783 224.399 278.125L214.245 276.079C202.933 273.8 191.252 277.595 183.44 286.088L176.428 293.712C167.316 303.617 151.684 303.617 142.572 293.712L135.56 286.088C127.748 277.595 116.067 273.8 104.755 276.079L94.6011 278.125C81.4074 280.783 68.7605 271.594 67.2115 258.225L66.0193 247.936C64.6912 236.473 57.472 226.537 46.9807 221.732L37.5636 217.418C25.3273 211.814 20.4967 196.946 27.1017 185.22L32.185 176.195C37.8481 166.141 37.8481 153.859 32.185 143.805L27.1017 134.78C20.4967 123.054 25.3273 108.186 37.5637 102.582L46.9807 98.2683C57.472 93.463 64.6912 83.5266 66.0193 72.0639L67.2115 61.7749C68.7605 48.4056 81.4074 39.2171 94.6011 41.8752L104.755 43.9208C116.067 46.1999 127.748 42.4045 135.56 33.9117L142.572 26.2884Z" stroke="#263238" stroke-width="10"/>
<path d="M125.596 87.892V104.5H123.412V92.116L117.892 104.5H116.356L110.812 92.092V104.5H108.628V87.892H110.98L117.124 101.62L123.268 87.892H125.596ZM129.228 89.212C128.812 89.212 128.46 89.068 128.172 88.78C127.884 88.492 127.74 88.14 127.74 87.724C127.74 87.308 127.884 86.956 128.172 86.668C128.46 86.38 128.812 86.236 129.228 86.236C129.628 86.236 129.964 86.38 130.236 86.668C130.524 86.956 130.668 87.308 130.668 87.724C130.668 88.14 130.524 88.492 130.236 88.78C129.964 89.068 129.628 89.212 129.228 89.212ZM130.284 91.348V104.5H128.1V91.348H130.284ZM139.214 91.108C140.814 91.108 142.11 91.596 143.102 92.572C144.094 93.532 144.59 94.924 144.59 96.748V104.5H142.43V97.06C142.43 95.748 142.102 94.748 141.446 94.06C140.79 93.356 139.894 93.004 138.758 93.004C137.606 93.004 136.686 93.364 135.998 94.084C135.326 94.804 134.99 95.852 134.99 97.228V104.5H132.806V91.348H134.99V93.22C135.422 92.548 136.006 92.028 136.742 91.66C137.494 91.292 138.318 91.108 139.214 91.108ZM148.085 89.212C147.669 89.212 147.317 89.068 147.029 88.78C146.741 88.492 146.597 88.14 146.597 87.724C146.597 87.308 146.741 86.956 147.029 86.668C147.317 86.38 147.669 86.236 148.085 86.236C148.485 86.236 148.821 86.38 149.093 86.668C149.381 86.956 149.525 87.308 149.525 87.724C149.525 88.14 149.381 88.492 149.093 88.78C148.821 89.068 148.485 89.212 148.085 89.212ZM149.141 91.348V104.5H146.957V91.348H149.141ZM167.48 91.108C168.504 91.108 169.416 91.324 170.216 91.756C171.016 92.172 171.648 92.804 172.112 93.652C172.576 94.5 172.808 95.532 172.808 96.748V104.5H170.648V97.06C170.648 95.748 170.32 94.748 169.664 94.06C169.024 93.356 168.152 93.004 167.048 93.004C165.912 93.004 165.008 93.372 164.336 94.108C163.664 94.828 163.328 95.876 163.328 97.252V104.5H161.168V97.06C161.168 95.748 160.84 94.748 160.184 94.06C159.544 93.356 158.672 93.004 157.568 93.004C156.432 93.004 155.528 93.372 154.856 94.108C154.184 94.828 153.848 95.876 153.848 97.252V104.5H151.664V91.348H153.848V93.244C154.28 92.556 154.856 92.028 155.576 91.66C156.312 91.292 157.12 91.108 158 91.108C159.104 91.108 160.08 91.356 160.928 91.852C161.776 92.348 162.408 93.076 162.824 94.036C163.192 93.108 163.8 92.388 164.648 91.876C165.496 91.364 166.44 91.108 167.48 91.108ZM186.854 91.348V104.5H184.67V102.556C184.254 103.228 183.67 103.756 182.918 104.14C182.182 104.508 181.366 104.692 180.47 104.692C179.446 104.692 178.526 104.484 177.71 104.068C176.894 103.636 176.246 102.996 175.766 102.148C175.302 101.3 175.07 100.268 175.07 99.052V91.348H177.23V98.764C177.23 100.06 177.558 101.06 178.214 101.764C178.87 102.452 179.766 102.796 180.902 102.796C182.07 102.796 182.99 102.436 183.662 101.716C184.334 100.996 184.67 99.948 184.67 98.572V91.348H186.854ZM205.158 91.108C206.182 91.108 207.094 91.324 207.894 91.756C208.694 92.172 209.326 92.804 209.79 93.652C210.254 94.5 210.486 95.532 210.486 96.748V104.5H208.326V97.06C208.326 95.748 207.998 94.748 207.342 94.06C206.702 93.356 205.83 93.004 204.726 93.004C203.59 93.004 202.686 93.372 202.014 94.108C201.342 94.828 201.006 95.876 201.006 97.252V104.5H198.846V97.06C198.846 95.748 198.518 94.748 197.862 94.06C197.222 93.356 196.35 93.004 195.246 93.004C194.11 93.004 193.206 93.372 192.534 94.108C191.862 94.828 191.526 95.876 191.526 97.252V104.5H189.342V91.348H191.526V93.244C191.958 92.556 192.534 92.028 193.254 91.66C193.99 91.292 194.798 91.108 195.678 91.108C196.782 91.108 197.758 91.356 198.606 91.852C199.454 92.348 200.086 93.076 200.502 94.036C200.87 93.108 201.478 92.388 202.326 91.876C203.174 91.364 204.118 91.108 205.158 91.108Z" fill="#263238"/>
<path d="M92.5417 135.02V137.42H95.9417V141.58H92.3017C91.8751 143.953 90.8351 145.767 89.1817 147.02C87.5284 148.247 85.1151 148.86 81.9417 148.86V150.46C81.9417 151.5 82.1417 152.313 82.5417 152.9C82.9417 153.46 83.6351 153.74 84.6217 153.74C85.5551 153.74 86.2217 153.46 86.6217 152.9C87.0217 152.34 87.2217 151.5 87.2217 150.38H93.5417C93.4351 153.073 92.6351 155.167 91.1417 156.66C89.6751 158.153 87.5551 158.9 84.7817 158.9C81.7951 158.9 79.5017 158.127 77.9017 156.58C76.3284 155.007 75.5417 152.66 75.5417 149.54V144.38C78.3151 144.38 80.3551 144.327 81.6617 144.22C82.9951 144.087 83.9817 143.833 84.6217 143.46C85.2884 143.06 85.7284 142.433 85.9417 141.58H74.7817V137.42H86.1417V135.02H74.7817V130.42H95.9417V135.02H92.5417ZM117.528 135.26H105.048V140.78C105.581 140.193 106.328 139.713 107.288 139.34C108.248 138.967 109.288 138.78 110.408 138.78C112.408 138.78 114.061 139.233 115.368 140.14C116.701 141.047 117.675 142.22 118.288 143.66C118.901 145.1 119.208 146.66 119.208 148.34C119.208 151.46 118.328 153.94 116.568 155.78C114.808 157.593 112.328 158.5 109.128 158.5C106.995 158.5 105.141 158.14 103.568 157.42C101.995 156.673 100.781 155.647 99.928 154.34C99.0746 153.033 98.608 151.527 98.528 149.82H105.208C105.368 150.647 105.755 151.34 106.368 151.9C106.981 152.433 107.821 152.7 108.888 152.7C110.141 152.7 111.075 152.3 111.688 151.5C112.301 150.7 112.608 149.633 112.608 148.3C112.608 146.993 112.288 145.993 111.648 145.3C111.008 144.607 110.075 144.26 108.848 144.26C107.941 144.26 107.195 144.487 106.608 144.94C106.021 145.367 105.635 145.94 105.448 146.66H98.848V129.26H117.528V135.26ZM135.304 158.5L128.504 149.14V158.5H121.664V128.9H128.504V145.26L135.264 136.18H143.704L134.424 147.38L143.784 158.5H135.304ZM168.067 141.62V147.3H150.467V141.62H168.067ZM177.626 153.02C178.533 152.3 178.946 151.967 178.866 152.02C181.48 149.86 183.533 148.087 185.026 146.7C186.546 145.313 187.826 143.86 188.866 142.34C189.906 140.82 190.426 139.34 190.426 137.9C190.426 136.807 190.173 135.953 189.666 135.34C189.16 134.727 188.4 134.42 187.386 134.42C186.373 134.42 185.573 134.807 184.986 135.58C184.426 136.327 184.146 137.393 184.146 138.78H177.546C177.6 136.513 178.08 134.62 178.986 133.1C179.92 131.58 181.133 130.46 182.626 129.74C184.146 129.02 185.826 128.66 187.666 128.66C190.84 128.66 193.226 129.473 194.826 131.1C196.453 132.727 197.266 134.847 197.266 137.46C197.266 140.313 196.293 142.967 194.346 145.42C192.4 147.847 189.92 150.22 186.906 152.54H197.706V158.1H177.626V153.02ZM198.718 143.5C198.718 138.913 199.598 135.3 201.358 132.66C203.145 130.02 206.011 128.7 209.958 128.7C213.905 128.7 216.758 130.02 218.518 132.66C220.305 135.3 221.198 138.913 221.198 143.5C221.198 148.14 220.305 151.78 218.518 154.42C216.758 157.06 213.905 158.38 209.958 158.38C206.011 158.38 203.145 157.06 201.358 154.42C199.598 151.78 198.718 148.14 198.718 143.5ZM214.478 143.5C214.478 140.807 214.185 138.74 213.598 137.3C213.011 135.833 211.798 135.1 209.958 135.1C208.118 135.1 206.905 135.833 206.318 137.3C205.731 138.74 205.438 140.807 205.438 143.5C205.438 145.313 205.545 146.82 205.758 148.02C205.971 149.193 206.398 150.153 207.038 150.9C207.705 151.62 208.678 151.98 209.958 151.98C211.238 151.98 212.198 151.62 212.838 150.9C213.505 150.153 213.945 149.193 214.158 148.02C214.371 146.82 214.478 145.313 214.478 143.5ZM237.132 158.5L230.332 149.14V158.5H223.492V128.9H230.332V145.26L237.092 136.18H245.532L236.252 147.38L245.612 158.5H237.132Z" fill="#263238"/>
<path d="M123.396 178.348C123.684 177.847 124.11 177.431 124.676 177.1C125.252 176.759 125.918 176.588 126.676 176.588C127.454 176.588 128.158 176.775 128.788 177.148C129.428 177.521 129.929 178.049 130.292 178.732C130.654 179.404 130.836 180.188 130.836 181.084C130.836 181.969 130.654 182.759 130.292 183.452C129.929 184.145 129.428 184.684 128.788 185.068C128.158 185.452 127.454 185.644 126.676 185.644C125.929 185.644 125.268 185.479 124.692 185.148C124.126 184.807 123.694 184.385 123.396 183.884V189.66H121.94V176.732H123.396V178.348ZM129.348 181.084C129.348 180.423 129.214 179.847 128.948 179.356C128.681 178.865 128.318 178.492 127.86 178.236C127.412 177.98 126.916 177.852 126.372 177.852C125.838 177.852 125.342 177.985 124.884 178.252C124.436 178.508 124.073 178.887 123.796 179.388C123.529 179.879 123.396 180.449 123.396 181.1C123.396 181.761 123.529 182.343 123.796 182.844C124.073 183.335 124.436 183.713 124.884 183.98C125.342 184.236 125.838 184.364 126.372 184.364C126.916 184.364 127.412 184.236 127.86 183.98C128.318 183.713 128.681 183.335 128.948 182.844C129.214 182.343 129.348 181.756 129.348 181.084ZM139.952 180.78C139.952 181.057 139.936 181.351 139.904 181.66H132.896C132.95 182.524 133.243 183.201 133.776 183.692C134.32 184.172 134.976 184.412 135.744 184.412C136.374 184.412 136.896 184.268 137.312 183.98C137.739 183.681 138.038 183.287 138.208 182.796H139.776C139.542 183.639 139.072 184.327 138.368 184.86C137.664 185.383 136.79 185.644 135.744 185.644C134.912 185.644 134.166 185.457 133.504 185.084C132.854 184.711 132.342 184.183 131.968 183.5C131.595 182.807 131.408 182.007 131.408 181.1C131.408 180.193 131.59 179.399 131.952 178.716C132.315 178.033 132.822 177.511 133.472 177.148C134.134 176.775 134.891 176.588 135.744 176.588C136.576 176.588 137.312 176.769 137.952 177.132C138.592 177.495 139.083 177.996 139.424 178.636C139.776 179.265 139.952 179.98 139.952 180.78ZM138.448 180.476C138.448 179.921 138.326 179.447 138.08 179.052C137.835 178.647 137.499 178.343 137.072 178.14C136.656 177.927 136.192 177.82 135.68 177.82C134.944 177.82 134.315 178.055 133.792 178.524C133.28 178.993 132.987 179.644 132.912 180.476H138.448ZM142.53 178.156C142.786 177.655 143.149 177.265 143.618 176.988C144.098 176.711 144.68 176.572 145.362 176.572V178.076H144.978C143.346 178.076 142.53 178.961 142.53 180.732V185.5H141.074V176.732H142.53V178.156ZM160.253 176.572C160.935 176.572 161.543 176.716 162.077 177.004C162.61 177.281 163.031 177.703 163.341 178.268C163.65 178.833 163.805 179.521 163.805 180.332V185.5H162.365V180.54C162.365 179.665 162.146 178.999 161.709 178.54C161.282 178.071 160.701 177.836 159.965 177.836C159.207 177.836 158.605 178.081 158.157 178.572C157.709 179.052 157.485 179.751 157.485 180.668V185.5H156.045V180.54C156.045 179.665 155.826 178.999 155.389 178.54C154.962 178.071 154.381 177.836 153.645 177.836C152.887 177.836 152.285 178.081 151.837 178.572C151.389 179.052 151.165 179.751 151.165 180.668V185.5H149.709V176.732H151.165V177.996C151.453 177.537 151.837 177.185 152.317 176.94C152.807 176.695 153.346 176.572 153.933 176.572C154.669 176.572 155.319 176.737 155.885 177.068C156.45 177.399 156.871 177.884 157.149 178.524C157.394 177.905 157.799 177.425 158.365 177.084C158.93 176.743 159.559 176.572 160.253 176.572ZM169.217 185.644C168.396 185.644 167.649 185.457 166.977 185.084C166.316 184.711 165.793 184.183 165.409 183.5C165.036 182.807 164.849 182.007 164.849 181.1C164.849 180.204 165.041 179.415 165.425 178.732C165.82 178.039 166.353 177.511 167.025 177.148C167.697 176.775 168.449 176.588 169.281 176.588C170.113 176.588 170.865 176.775 171.537 177.148C172.209 177.511 172.737 178.033 173.121 178.716C173.516 179.399 173.713 180.193 173.713 181.1C173.713 182.007 173.51 182.807 173.105 183.5C172.71 184.183 172.172 184.711 171.489 185.084C170.806 185.457 170.049 185.644 169.217 185.644ZM169.217 184.364C169.74 184.364 170.23 184.241 170.689 183.996C171.148 183.751 171.516 183.383 171.793 182.892C172.081 182.401 172.225 181.804 172.225 181.1C172.225 180.396 172.086 179.799 171.809 179.308C171.532 178.817 171.169 178.455 170.721 178.22C170.273 177.975 169.788 177.852 169.265 177.852C168.732 177.852 168.241 177.975 167.793 178.22C167.356 178.455 167.004 178.817 166.737 179.308C166.47 179.799 166.337 180.396 166.337 181.1C166.337 181.815 166.465 182.417 166.721 182.908C166.988 183.399 167.34 183.767 167.777 184.012C168.214 184.247 168.694 184.364 169.217 184.364ZM179.099 176.572C180.166 176.572 181.03 176.897 181.691 177.548C182.353 178.188 182.683 179.116 182.683 180.332V185.5H181.243V180.54C181.243 179.665 181.025 178.999 180.587 178.54C180.15 178.071 179.553 177.836 178.795 177.836C178.027 177.836 177.414 178.076 176.955 178.556C176.507 179.036 176.283 179.735 176.283 180.652V185.5H174.827V176.732H176.283V177.98C176.571 177.532 176.961 177.185 177.451 176.94C177.953 176.695 178.502 176.572 179.099 176.572ZM186.038 177.932V183.1C186.038 183.527 186.128 183.831 186.31 184.012C186.491 184.183 186.806 184.268 187.254 184.268H188.326V185.5H187.014C186.203 185.5 185.595 185.313 185.19 184.94C184.784 184.567 184.582 183.953 184.582 183.1V177.932H183.446V176.732H184.582V174.524H186.038V176.732H188.326V177.932H186.038ZM193.642 176.572C194.303 176.572 194.9 176.716 195.434 177.004C195.967 177.281 196.383 177.703 196.682 178.268C196.991 178.833 197.146 179.521 197.146 180.332V185.5H195.706V180.54C195.706 179.665 195.487 178.999 195.05 178.54C194.612 178.071 194.015 177.836 193.258 177.836C192.49 177.836 191.876 178.076 191.418 178.556C190.97 179.036 190.746 179.735 190.746 180.652V185.5H189.29V173.66H190.746V177.98C191.034 177.532 191.428 177.185 191.93 176.94C192.442 176.695 193.012 176.572 193.642 176.572Z" fill="#263238"/>
<path d="M98.6497 209.788C98.2657 209.084 97.7377 208.548 97.0657 208.18C96.3937 207.812 95.6097 207.628 94.7137 207.628C93.7217 207.628 92.8417 207.852 92.0737 208.3C91.3057 208.748 90.7057 209.388 90.2737 210.22C89.8417 211.052 89.6257 212.012 89.6257 213.1C89.6257 214.22 89.8417 215.196 90.2737 216.028C90.7217 216.86 91.3377 217.5 92.1217 217.948C92.9057 218.396 93.8177 218.62 94.8577 218.62C96.1377 218.62 97.1857 218.284 98.0017 217.612C98.8177 216.924 99.3537 215.972 99.6097 214.756H93.8497V212.188H102.922V215.116C102.698 216.284 102.218 217.364 101.482 218.356C100.746 219.348 99.7937 220.148 98.6257 220.756C97.4737 221.348 96.1777 221.644 94.7377 221.644C93.1217 221.644 91.6577 221.284 90.3457 220.564C89.0497 219.828 88.0257 218.812 87.2737 217.516C86.5377 216.22 86.1697 214.748 86.1697 213.1C86.1697 211.452 86.5377 209.98 87.2737 208.684C88.0257 207.372 89.0497 206.356 90.3457 205.636C91.6577 204.9 93.1137 204.532 94.7137 204.532C96.6017 204.532 98.2417 204.996 99.6337 205.924C101.026 206.836 101.986 208.124 102.514 209.788H98.6497ZM107.52 204.748V215.116C107.52 216.252 107.816 217.124 108.408 217.732C109 218.324 109.832 218.62 110.904 218.62C111.992 218.62 112.832 218.324 113.424 217.732C114.016 217.124 114.312 216.252 114.312 215.116V204.748H117.696V215.092C117.696 216.516 117.384 217.724 116.76 218.716C116.152 219.692 115.328 220.428 114.288 220.924C113.264 221.42 112.12 221.668 110.856 221.668C109.608 221.668 108.472 221.42 107.448 220.924C106.44 220.428 105.64 219.692 105.048 218.716C104.456 217.724 104.16 216.516 104.16 215.092V204.748H107.52ZM130.014 218.308H123.342L122.238 221.5H118.71L124.734 204.724H128.646L134.67 221.5H131.118L130.014 218.308ZM129.102 215.62L126.678 208.612L124.254 215.62H129.102ZM144.362 221.5L140.666 214.972H139.082V221.5H135.722V204.748H142.01C143.306 204.748 144.41 204.98 145.322 205.444C146.234 205.892 146.914 206.508 147.362 207.292C147.826 208.06 148.058 208.924 148.058 209.884C148.058 210.988 147.738 211.988 147.098 212.884C146.458 213.764 145.506 214.372 144.242 214.708L148.25 221.5H144.362ZM139.082 212.452H141.89C142.802 212.452 143.482 212.236 143.93 211.804C144.378 211.356 144.602 210.74 144.602 209.956C144.602 209.188 144.378 208.596 143.93 208.18C143.482 207.748 142.802 207.532 141.89 207.532H139.082V212.452ZM160.169 218.308H153.497L152.393 221.5H148.865L154.889 204.724H158.801L164.825 221.5H161.273L160.169 218.308ZM159.257 215.62L156.833 208.612L154.409 215.62H159.257ZM180.204 221.5H176.844L169.236 210.004V221.5H165.876V204.724H169.236L176.844 216.244V204.724H180.204V221.5ZM193.725 204.748V207.46H189.261V221.5H185.901V207.46H181.437V204.748H193.725ZM198.336 207.46V211.66H203.976V214.324H198.336V218.764H204.696V221.5H194.976V204.724H204.696V207.46H198.336ZM209.91 207.46V211.66H215.55V214.324H209.91V218.764H216.27V221.5H206.55V204.724H216.27V207.46H209.91ZM223.979 204.748C225.739 204.748 227.283 205.092 228.611 205.78C229.955 206.468 230.987 207.452 231.707 208.732C232.443 209.996 232.811 211.468 232.811 213.148C232.811 214.828 232.443 216.3 231.707 217.564C230.987 218.812 229.955 219.78 228.611 220.468C227.283 221.156 225.739 221.5 223.979 221.5H218.123V204.748H223.979ZM223.859 218.644C225.619 218.644 226.979 218.164 227.939 217.204C228.899 216.244 229.379 214.892 229.379 213.148C229.379 211.404 228.899 210.044 227.939 209.068C226.979 208.076 225.619 207.58 223.859 207.58H221.483V218.644H223.859Z" fill="#263238"/>
</svg>
