<svg width="89" height="15" viewBox="0 0 89 15" fill="none" xmlns="http://www.w3.org/2000/svg">
<g id="Group 246">
<path id="Vector" d="M8.5291 12.272L3.25829 15L4.43531 9.52184L0 5.72968L5.99869 5.07186L8.5291 0L11.0595 5.07186L17.0582 5.72968L12.6229 9.52184L13.7999 15L8.5291 12.272Z" fill="#FFC100"/>
<path id="Vector_2" d="M26.3289 12.272L21.0581 15L22.2351 9.52184L17.7998 5.72968L23.7985 5.07186L26.3289 0L28.8593 5.07186L34.858 5.72968L30.4227 9.52184L31.5997 15L26.3289 12.272Z" fill="#FFC100"/>
<path id="Vector_3" d="M44.8709 12.272L39.6001 15L40.7771 9.52184L36.3418 5.72968L42.3405 5.07186L44.8709 0L47.4013 5.07186L53.4 5.72968L48.9647 9.52184L50.1417 15L44.8709 12.272Z" fill="#FFC100"/>
<path id="Vector_4" d="M62.6707 12.272L57.3999 15L58.5769 9.52184L54.1416 5.72968L60.1403 5.07186L62.6707 0L65.2011 5.07186L71.1998 5.72968L66.7645 9.52184L67.9415 15L62.6707 12.272Z" fill="#FFC100"/>
<g id="Group 245">
<path id="Vector_5" d="M80.4705 12.272L75.1997 15L76.3767 9.52184L71.9414 5.72968L77.9401 5.07186L80.4705 0L83.0009 5.07186L88.9996 5.72968L84.5643 9.52184L85.7413 15L80.4705 12.272Z" fill="#C7C7C7"/>
<path id="Vector_6" d="M80.8413 12.1429L75.2789 14.9999L76.3914 9.64286L71.9414 5.72968L77.8747 5L80.4705 0L80.8413 5V6.78571V12.1429Z" fill="#FFC100"/>
</g>
</g>
</svg>
